REM DIRINDEX 1\2\5,1\2\6,1\2\7,1\2\8,1\3\9,1\3\10,1\3\11,1\4\12,1\4\13,1\4\14,1\4\15,1\4\16
REM DIRNAME folder01,folder02,folder03,folder04,folder05,folder06,folder07,folder08,folder09,folder10,folder11,folder12,folder13,folder14,folder15,folder16
TITLE ""
FILE "1200_2_sec03_0747_0763.mp3" MP3
  TRACK 01 AUDIO
    TITLE "0:"
    INDEX 01 00:00:00
  TRACK 02 AUDIO
    TITLE "10:cjc034_01534"
    INDEX 01 00:00:15
  TRACK 03 AUDIO
    TITLE "0:"
    INDEX 01 00:01:07
  TRACK 04 AUDIO
    TITLE "9:cjc034_01535"
    INDEX 01 00:01:17
  TRACK 05 AUDIO
    TITLE "0:"
    INDEX 01 00:02:38
  TRACK 06 AUDIO
    TITLE "10:cjc034_01536"
    INDEX 01 00:03:21
  TRACK 07 AUDIO
    TITLE "0:"
    INDEX 01 00:04:13
  TRACK 08 AUDIO
    TITLE "9:cjc034_01537"
    INDEX 01 00:04:17
  TRACK 09 AUDIO
    TITLE "0:"
    INDEX 01 00:05:24
  TRACK 10 AUDIO
    TITLE "10:cjc034_01538"
    INDEX 01 00:06:02
  TRACK 11 AUDIO
    TITLE "0:"
    INDEX 01 00:07:13
  TRACK 12 AUDIO
    TITLE "9:cjc034_01539"
    INDEX 01 00:07:19
  TRACK 13 AUDIO
    TITLE "0:"
    INDEX 01 00:08:42
  TRACK 14 AUDIO
    TITLE "10:cjc034_01540"
    INDEX 01 00:09:10
  TRACK 15 AUDIO
    TITLE "0:"
    INDEX 01 00:11:13
  TRACK 16 AUDIO
    TITLE "9:cjc034_01541"
    INDEX 01 00:11:15
  TRACK 17 AUDIO
    TITLE "0:"
    INDEX 01 00:12:20
  TRACK 18 AUDIO
    TITLE "10:cjc034_01542"
    INDEX 01 00:13:10
  TRACK 19 AUDIO
    TITLE "0:"
    INDEX 01 00:13:73
  TRACK 20 AUDIO
    TITLE "9:cjc034_01543"
    INDEX 01 00:14:07
  TRACK 21 AUDIO
    TITLE "0:"
    INDEX 01 00:15:19
  TRACK 22 AUDIO
    TITLE "10:cjc034_01544"
    INDEX 01 00:16:04
  TRACK 23 AUDIO
    TITLE "0:"
    INDEX 01 00:17:16
  TRACK 24 AUDIO
    TITLE "9:cjc034_01545"
    INDEX 01 00:17:21
  TRACK 25 AUDIO
    TITLE "0:"
    INDEX 01 00:18:39
  TRACK 26 AUDIO
    TITLE "10:cjc034_01546"
    INDEX 01 00:19:24
  TRACK 27 AUDIO
    TITLE "0:"
    INDEX 01 00:20:18
  TRACK 28 AUDIO
    TITLE "9:cjc034_01547"
    INDEX 01 00:20:28
  TRACK 29 AUDIO
    TITLE "0:"
    INDEX 01 00:21:45
  TRACK 30 AUDIO
    TITLE "10:cjc034_01548"
    INDEX 01 00:22:32
  TRACK 31 AUDIO
    TITLE "0:"
    INDEX 01 00:23:26
  TRACK 32 AUDIO
    TITLE "9:cjc034_01549"
    INDEX 01 00:23:30
  TRACK 33 AUDIO
    TITLE "0:"
    INDEX 01 00:24:41
  TRACK 34 AUDIO
    TITLE "10:cjc034_01550"
    INDEX 01 00:25:21
  TRACK 35 AUDIO
    TITLE "0:"
    INDEX 01 00:26:32
  TRACK 36 AUDIO
    TITLE "9:cjc034_01551"
    INDEX 01 00:26:36
  TRACK 37 AUDIO
    TITLE "0:"
    INDEX 01 00:27:53
  TRACK 38 AUDIO
    TITLE "11:cjc034_01552"
    INDEX 01 00:29:33
  TRACK 39 AUDIO
    TITLE "0:"
    INDEX 01 00:32:05
  TRACK 40 AUDIO
    TITLE "10:cjc034_01553"
    INDEX 01 00:33:09
  TRACK 41 AUDIO
    TITLE "0:"
    INDEX 01 00:35:29
  TRACK 42 AUDIO
    TITLE "9:cjc034_01554"
    INDEX 01 00:35:33
  TRACK 43 AUDIO
    TITLE "0:"
    INDEX 01 00:36:54
  TRACK 44 AUDIO
    TITLE "10:cjc034_01555"
    INDEX 01 00:37:36
  TRACK 45 AUDIO
    TITLE "0:"
    INDEX 01 00:38:53
  TRACK 46 AUDIO
    TITLE "9:cjc034_01556"
    INDEX 01 00:38:57
  TRACK 47 AUDIO
    TITLE "0:"
    INDEX 01 00:39:47
  TRACK 48 AUDIO
    TITLE "10:cjc034_01557"
    INDEX 01 00:40:36
  TRACK 49 AUDIO
    TITLE "0:"
    INDEX 01 00:41:36
  TRACK 50 AUDIO
    TITLE "9:cjc034_01558"
    INDEX 01 00:41:42
  TRACK 51 AUDIO
    TITLE "0:"
    INDEX 01 00:42:51
  TRACK 52 AUDIO
    TITLE "10:cjc034_01559"
    INDEX 01 00:43:44
  TRACK 53 AUDIO
    TITLE "0:"
    INDEX 01 00:44:46
  TRACK 54 AUDIO
    TITLE "9:cjc034_01560"
    INDEX 01 00:44:52
  TRACK 55 AUDIO
    TITLE "0:"
    INDEX 01 00:45:59
  TRACK 56 AUDIO
    TITLE "10:cjc034_01561"
    INDEX 01 00:46:45
  TRACK 57 AUDIO
    TITLE "0:"
    INDEX 01 00:48:08
  TRACK 58 AUDIO
    TITLE "9:cjc034_01562"
    INDEX 01 00:48:18
  TRACK 59 AUDIO
    TITLE "0:"
    INDEX 01 00:49:23
  TRACK 60 AUDIO
    TITLE "10:cjc034_01563"
    INDEX 01 00:50:05
  TRACK 61 AUDIO
    TITLE "0:"
    INDEX 01 00:51:58
  TRACK 62 AUDIO
    TITLE "9:cjc034_01564"
    INDEX 01 00:51:63
  TRACK 63 AUDIO
    TITLE "0:"
    INDEX 01 00:52:67
  TRACK 64 AUDIO
    TITLE "10:cjc034_01565"
    INDEX 01 00:53:51
  TRACK 65 AUDIO
    TITLE "0:"
    INDEX 01 00:55:65
  TRACK 66 AUDIO
    TITLE "9:cjc034_01566"
    INDEX 01 00:55:69
  TRACK 67 AUDIO
    TITLE "0:"
    INDEX 01 00:57:03
  TRACK 68 AUDIO
    TITLE "11:cjc034_01567"
    INDEX 01 00:58:50
  TRACK 69 AUDIO
    TITLE "0:"
    INDEX 01 01:02:50
  TRACK 70 AUDIO
    TITLE "10:cjc034_01568"
    INDEX 01 01:03:57
  TRACK 71 AUDIO
    TITLE "0:"
    INDEX 01 01:05:01
  TRACK 72 AUDIO
    TITLE "9:cjc034_01569"
    INDEX 01 01:05:07
  TRACK 73 AUDIO
    TITLE "0:"
    INDEX 01 01:06:24
